C:\GBW_MyPrograms\PredSim_2D_BCN\PredSimResults\BCN_CP2\BCN_CP2_job23.mot
version=1
nRows=18
nColumns=29
inDegrees=yes
endheader
                time	         pelvis_tilt	           pelvis_tx	           pelvis_ty	       hip_flexion_l	       hip_flexion_r	        knee_angle_l	        knee_angle_r	       ankle_angle_l	       ankle_angle_r	    lumbar_extension	hamstrings_r/activation	bifemsh_r/activation	glut_max_r/activation	iliopsoas_r/activation	rect_fem_r/activation	  vasti_r/activation	gastroc_r/activation	 soleus_r/activation	tib_ant_r/activation	hamstrings_l/activation	bifemsh_l/activation	glut_max_l/activation	iliopsoas_l/activation	rect_fem_l/activation	  vasti_l/activation	gastroc_l/activation	 soleus_l/activation	tib_ant_l/activation	
          1.21088291	         -7.07593969	          1.23278808	          0.89436288	         -8.43178861	         31.28305174	        -12.92572315	         -9.77735591	          8.35333240	          7.88817831	          0.72956220	          0.12986742	          0.05001183	          0.05000194	          0.05301589	          0.05000435	          0.05000034	          0.05515873	          0.05000033	          0.20753025	          0.05000030	          0.09734123	          0.05000153	          0.38040975	          0.08678961	          0.05104733	          0.25326922	          0.30247566	          0.05000005	
          1.22299174	         -7.10078713	          1.24932821	          0.89366176	         -8.09264086	         30.28908450	        -15.26085340	         -9.38455049	          7.33682607	          7.50768926	          1.20482216	          0.10805977	          0.05000355	          0.05000254	          0.05000048	          0.05000359	          0.06255019	          0.06333181	          0.06009044	          0.21400914	          0.05000030	          0.08099536	          0.07854670	          0.33319459	          0.07221571	          0.05312400	          0.21073926	          0.26152319	          0.05000005	
          1.23510057	         -7.11769620	          1.26610926	          0.89307446	         -7.55376893	         29.27794994	        -17.92373638	         -9.47170011	          6.03352263	          7.09678792	          1.70360605	          0.08991459	          0.05839799	          0.07581459	          0.05000025	          0.05000029	          0.08850255	          0.05269715	          0.05000025	          0.24213877	          0.05000131	          0.06739439	          0.10430922	          0.27724343	          0.06008910	          0.05710425	          0.17535103	          0.21760711	          0.05000004	
          1.24720940	         -7.13368920	          1.28271731	          0.89298571	         -6.79461304	         28.34811848	        -20.83341304	         -9.68200201	          4.25396974	          6.63493360	          2.18239842	          0.07481584	          0.05002024	          0.11375114	          0.05000024	          0.05000057	          0.14611316	          0.05000089	          0.05000053	          0.27183849	          0.05000041	          0.05607744	          0.08679328	          0.24647841	          0.05000330	          0.06111563	          0.14590533	          0.18106558	          0.05000021	
          1.25931823	         -7.15270783	          1.29882294	          0.89363614	         -5.79469657	         27.55487173	        -23.96309521	        -10.06471722	          2.06381815	          6.23781542	          2.60542698	          0.06655517	          0.05000138	          0.14740364	          0.05000018	          0.05000049	          0.21175375	          0.05000046	          0.05000044	          0.28535439	          0.05000075	          0.05000050	          0.07221862	          0.20723831	          0.05000102	          0.05085298	          0.12140428	          0.15066027	          0.25945857	
          1.27142706	         -7.17641753	          1.31423383	          0.89478950	         -4.63009273	         26.82086951	        -27.16981331	        -10.47053083	          0.41911783	          5.96396367	          2.95135562	          0.05537977	          0.05000196	          0.15111351	          0.05000022	          0.05000068	          0.24264000	          0.05000037	          0.05000036	          0.29609657	          0.05000146	          0.06678518	          0.06009140	          0.18858564	          0.05000050	          0.05000005	          0.10101757	          0.12536075	          0.23038742	
          1.28353588	         -7.20515156	          1.32895216	          0.89629610	         -3.43387969	         26.07369094	        -30.06380706	        -10.77313363	          0.14138870	          5.79846110	          3.22197095	          0.05305562	          0.05000244	          0.13969050	          0.05000023	          0.05000063	          0.24857493	          0.05000043	          0.05000046	          0.29265777	          0.05340201	          0.09718810	          0.05000067	          0.16868224	          0.05000057	          0.05000006	          0.08405433	          0.10430966	          0.26081396	
          1.29564471	         -7.23733391	          1.34307709	          0.89815595	         -2.22231820	         25.28088817	        -32.59989478	        -10.93050762	          0.40725181	          5.72754042	          3.42922485	          0.05118932	          0.05000273	          0.11844675	          0.05000027	          0.05000076	          0.23973134	          0.05000047	          0.05000060	          0.28433697	          0.06242065	          0.12587117	          0.05000014	          0.15627943	          0.05000061	          0.05000006	          0.06994084	          0.08679355	          0.25054336	
          1.30775354	         -7.27086179	          1.35669963	          0.90028113	         -1.00321825	         24.44631610	        -34.79064615	        -10.96020754	          0.86683734	          5.71795401	          3.58273895	          0.05000140	          0.05000204	          0.10510422	          0.05000029	          0.05000111	          0.22468873	          0.05000047	          0.05000062	          0.27318674	          0.06440936	          0.15554480	          0.05000016	          0.14889332	          0.05000675	          0.05000006	          0.06600559	          0.07221883	          0.23169051	
          1.31986237	         -7.30391491	          1.36989765	          0.90255162	          0.22079729	         23.58019693	        -36.66932775	        -10.88986430	          1.43059002	          5.74424752	          3.69031456	          0.05108198	          0.05000199	          0.09985476	          0.05000027	          0.05000099	          0.20771282	          0.05000047	          0.05000068	          0.26110665	          0.07441063	          0.19086896	          0.05000015	          0.14064222	          0.08621115	          0.05000007	          0.06165415	          0.06009157	          0.21198849	
          1.33197120	         -7.33509853	          1.38273675	          0.90485638	          1.44848775	         22.68990485	        -38.26138910	        -10.74055920	          2.04067106	          5.78613709	          3.75844427	          0.05261076	          0.05000178	          0.09904107	          0.05000025	          0.05000105	          0.19186289	          0.05000046	          0.05000073	          0.24951163	          0.07381773	          0.22885366	          0.05000016	          0.13447903	          0.11424694	          0.05000008	          0.06008297	          0.05000082	          0.19385737	
          1.34408003	         -7.36342071	          1.39526647	          0.90710506	          2.68321427	         21.78139295	        -39.59371700	        -10.52911951	          2.63422143	          5.83135952	          3.79193040	          0.05414571	          0.05000165	          0.10020552	          0.05000024	          0.05000107	          0.17847729	          0.05000044	          0.05000069	          0.23932319	          0.06437517	          0.27083911	          0.05000016	          0.12888230	          0.13475308	          0.05000008	          0.05000298	          0.05000017	          0.18455509	
          1.35618886	         -7.38821135	          1.40752335	          0.90922842	          3.93153262	         20.85910488	        -40.69593706	        -10.26846176	          3.16903763	          5.87629113	          3.79425222	          0.05527299	          0.05000156	          0.10108497	          0.05000023	          0.05000105	          0.16811874	          0.05000045	          0.05000059	          0.23044756	          0.05357215	          0.31326656	          0.05000017	          0.12348230	          0.14815124	          0.05000009	          0.05000086	          0.05000016	          0.18252340	
          1.36829769	         -7.40877588	          1.41953219	          0.91117620	          5.20349012	         19.92654551	        -41.60817229	         -9.96946952	          3.65298489	          5.92674664	          3.76735764	          0.05466279	          0.05000147	          0.09923511	          0.05000023	          0.05000121	          0.16074067	          0.05000049	          0.05000062	          0.22110364	          0.05000259	          0.35282397	          0.05000017	          0.11920757	          0.15654936	          0.05000011	          0.05000080	          0.05000017	          0.18274398	
          1.38040652	         -7.42426945	          1.43130713	          0.91291669	          6.51299285	         18.98668070	        -42.38454792	         -9.64136494	          4.11352115	          5.99279245	          3.71167666	          0.05286459	          0.05000138	          0.09518091	          0.05000023	          0.05000166	          0.15586839	          0.05221975	          0.05000089	          0.21028730	          0.05000124	          0.38654415	          0.05000016	          0.11561634	          0.16087276	          0.05000012	          0.05000076	          0.05000018	          0.18403660	
          1.39251535	         -7.43412018	          1.44285760	          0.91443853	          7.87243162	         18.04118478	        -43.07658887	         -9.28919296	          4.56408570	          6.07688169	          3.62741454	          0.05093431	          0.05000133	          0.08943682	          0.05000024	          0.05000169	          0.15229367	          0.06171963	          0.05000383	          0.19953327	          0.05000074	          0.41335868	          0.05000015	          0.11213920	          0.16183201	          0.05000013	          0.05000071	          0.05000018	          0.18583097	
          1.40462418	         -7.43805028	          1.45419090	          0.91574820	          9.28917228	         17.09292003	        -43.72281224	         -8.91841326	          5.00883617	          6.17107715	          3.51489111	          0.05000096	          0.05000124	          0.08219310	          0.05000028	          0.05037897	          0.14846127	          0.07233991	          0.05311389	          0.18919668	          0.05000044	          0.43457119	          0.05000013	          0.11078862	          0.16148692	          0.05000014	          0.05000070	          0.05000018	          0.18780182	
          1.41673300	         -7.43603861	          1.46531455	          0.91686425	         10.76578041	         16.14503304	        -44.34929702	         -8.53422693	          5.44926977	          6.26704168	          3.37474603	          0.05000141	          0.05000131	          0.07736185	          0.05000028	          0.07079304	          0.14295006	          0.08419021	          0.05759889	          0.18041702	          0.05000038	          0.45022158	          0.05000012	          0.10638309	          0.15722809	          0.05000014	          0.05000068	          0.05000018	          0.18976704	
